<?xml version="1.0" standalone="no"?>
<!DOCTYPE svg PUBLIC "-//W3C//DTD SVG 20010904//EN"
 "http://www.w3.org/TR/2001/REC-SVG-20010904/DTD/svg10.dtd">
<svg version="1.0" xmlns="http://www.w3.org/2000/svg"
 width="512.000000pt" height="512.000000pt" viewBox="0 0 512.000000 512.000000"
 preserveAspectRatio="xMidYMid meet">
<metadata>
Created by potrace 1.14, written by Peter Selinger 2001-2017
</metadata>
<g transform="translate(0.000000,512.000000) scale(0.100000,-0.100000)"
fill="#000000" stroke="none">
<path d="M2480 5097 c-36 -12 -598 -224 -1250 -471 -863 -327 -1191 -455
-1207 -473 l-23 -24 0 -1563 c0 -1532 0 -1564 19 -1588 16 -19 287 -126 1280
-503 l1261 -478 1261 478 c993 377 1264 484 1280 503 19 24 19 56 19 1587 0
1477 -1 1564 -18 1585 -12 15 -377 158 -1253 490 -679 258 -1251 471 -1270
474 -23 4 -56 -1 -99 -17z m1191 -574 c142 -54 259 -100 259 -103 0 -3 -135
-56 -300 -119 l-299 -113 -258 98 c-142 53 -261 100 -265 103 -7 6 565 229
591 230 7 1 130 -43 272 -96z m818 -308 c160 -60 291 -112 291 -115 0 -6 -591
-230 -608 -230 -12 0 -553 204 -578 218 -10 5 89 48 288 124 167 64 306 116
309 115 4 -1 138 -51 298 -112z m-868 -323 c156 -60 290 -111 298 -113 14 -5
-512 -209 -537 -209 -13 0 -552 203 -578 218 -8 4 90 47 249 109 144 55 267
101 273 102 6 1 139 -48 295 -107z m-771 -307 c154 -60 277 -111 273 -115 -13
-10 -547 -210 -563 -210 -19 0 -580 212 -580 219 0 10 554 220 572 216 9 -1
143 -51 298 -110z m-1475 -69 c180 -68 329 -126 331 -129 2 -2 3 -191 2 -420
l-3 -415 -335 128 -335 128 -3 416 c-1 250 1 416 7 416 5 0 156 -56 336 -124z
m1865 -614 l0 -418 -277 -106 c-153 -59 -286 -110 -296 -113 -16 -7 -17 15
-15 415 l3 423 280 107 c154 59 286 108 293 109 9 1 12 -89 12 -417z m1708
-369 l-3 -417 -85 -34 c-231 -91 -574 -222 -581 -222 -5 0 -9 186 -9 418 l0
417 248 94 c136 52 285 109 332 127 47 18 88 33 93 33 4 1 6 -187 5 -416z
m-858 -330 l0 -418 -328 -124 c-180 -69 -333 -126 -339 -129 -10 -3 -13 83
-13 411 0 322 3 418 13 424 18 11 640 251 655 252 9 1 12 -89 12 -416z m-1868
-34 l248 -94 0 -417 c0 -230 -3 -418 -7 -418 -5 0 -136 49 -293 109 l-285 110
-3 420 -2 421 47 -18 c27 -10 159 -61 295 -113z m1018 -287 l0 -419 -282 -108
c-156 -59 -289 -110 -296 -112 -10 -4 -12 80 -10 412 l3 418 290 113 c160 61
291 112 293 113 1 1 2 -187 2 -417z m-2680 -101 l285 -109 3 -421 c1 -231 1
-421 0 -421 -2 0 -154 58 -338 128 l-335 127 -3 423 -2 422 52 -20 c29 -11
181 -69 338 -129z m4220 -338 l0 -418 -255 -96 -255 -97 0 418 0 417 248 96
c136 53 250 96 255 96 4 1 7 -187 7 -416z m-690 -262 l0 -418 -317 -121 c-175
-66 -326 -123 -336 -127 -16 -7 -17 15 -15 411 l3 419 330 127 c182 70 331
127 333 127 1 1 2 -187 2 -418z m-1622 -544 c2 -331 0 -417 -10 -416 -7 0
-139 49 -293 108 l-280 107 -3 421 -2 420 292 -112 293 -112 3 -416z"/>
</g>
</svg>
